<mxfile host="app.diagrams.net" modified="2023-08-29T02:02:11.582Z" agent="Mozilla/5.0 (Windows NT 10.0; Win64; x64) AppleWebKit/537.36 (KHTML, like Gecko) Chrome/116.0.0.0 Safari/537.36" version="21.6.9" etag="XiyeBG5wV6KUty9agGk1" type="github">
  <diagram name="Halaman-1" id="Z-mgHJ2GwXwVUau4aLhQ">
    <mxGraphModel>
      <root>
        <mxCell id="0" />
        <mxCell id="1" parent="0" />
      </root>
    </mxGraphModel>
  </diagram>
</mxfile>
